<svg width="25" height="29" viewBox="0 0 25 29" fill="none" xmlns="http://www.w3.org/2000/svg">
<path d="M24.8429 23.128L22.9677 8.09174C22.8987 7.57086 22.4469 7.25834 21.926 7.25834H17.3423V5.31417C17.3423 2.64078 15.1546 0.487091 12.4812 0.487091C9.80778 0.487091 7.62009 2.63961 7.62009 5.31417V7.25834H3.03636C2.51549 7.25834 2.06361 7.57086 1.99461 8.09174L0.119446 23.162V23.2662C0.119446 25.9396 2.27196 28.0583 4.94653 28.0583H20.0872C22.7606 28.0583 24.9142 25.9058 24.9142 23.2312C24.8778 23.2325 24.8778 23.1973 24.8426 23.1283L24.8429 23.128ZM9.7036 5.31384C9.7036 3.82021 10.9889 2.5701 12.4812 2.5701C13.9748 2.5701 15.2587 3.78504 15.2587 5.31384V7.258H9.7036V5.31384ZM20.0508 26.0096H4.91152C3.4179 26.0096 2.20296 24.8988 2.16779 23.4052L3.93877 9.34135H7.62009V11.7374C6.92603 12.1189 6.1968 12.9523 6.1968 13.9602C6.1968 15.3145 7.30757 16.3915 8.62801 16.3915C9.94713 16.3915 11.0592 15.3145 11.0592 13.9602C11.0592 13.0227 10.399 12.1893 9.70494 11.8077V9.37652H15.2614V11.7726C14.2197 12.1541 13.803 12.9875 13.803 13.9954C13.803 15.3497 14.8799 16.4266 16.2342 16.4266C17.5884 16.4266 18.6654 15.3497 18.6654 13.9954C18.6654 13.0578 18.0403 12.2244 17.3463 11.8429V9.41169H21.0276L22.7986 23.4756C22.7595 24.8988 21.5446 26.0096 20.0509 26.0096L20.0508 26.0096ZM9.35591 13.9602C9.35591 14.3418 9.04338 14.6543 8.66185 14.6543C8.28031 14.6543 7.96779 14.3418 7.96779 13.9602C7.96779 13.5787 8.28031 13.2662 8.66185 13.2662C9.04338 13.2649 9.35591 13.5774 9.35591 13.9602ZM16.9256 13.9602C16.9256 14.3418 16.613 14.6543 16.2315 14.6543C15.85 14.6543 15.5374 14.3418 15.5374 13.9602C15.5374 13.5787 15.85 13.2662 16.2315 13.2662C16.613 13.2649 16.9256 13.5774 16.9256 13.9602Z" fill="#6DA8A0"/>
</svg>
