<svg width="31" height="32" viewBox="0 0 31 32" fill="none" xmlns="http://www.w3.org/2000/svg">
<path fill-rule="evenodd" clip-rule="evenodd" d="M2.28345 23.7811V26.2063C2.84938 26.5892 7.37041 29.1592 15.2182 29.1592C23.0659 29.1592 27.5887 26.5908 28.1529 26.2096V23.7811C28.1529 20.7101 21.9977 18.323 21.5596 18.1402C20.1814 20.875 18.1457 22.9025 15.2177 22.9025C12.2915 22.9025 10.2556 20.8768 8.87929 18.1453C8.44486 18.3251 2.28303 20.7037 2.28303 23.7816L2.28345 23.7811ZM6.8475 8.76393C6.8475 4.41117 10.596 0.882507 15.2185 0.882507C19.8411 0.882507 23.5896 4.41125 23.5896 8.76393C23.5896 10.6115 23.2666 13.4444 22.3928 16.0961C25.4405 17.2596 30.4374 19.1455 30.4374 23.6963V26.7507C30.4374 28.4318 23.871 31.3199 15.2187 31.3199C6.56643 31.3199 0 28.427 0 26.7507V23.6963C0 19.1305 5.00003 17.2611 8.04633 16.0995C7.17079 13.4479 6.84788 10.6116 6.84788 8.76393H6.8475ZM15.2185 20.6671C18.6441 20.6671 21.3055 14.6384 21.3055 8.4644C21.3055 5.58314 18.6257 3.16609 15.2185 3.16609C11.8113 3.16609 9.13144 5.58297 9.13144 8.4644C9.13144 14.638 11.793 20.6671 15.2185 20.6671Z" fill="#6DA8A0"/>
</svg>
