<svg width="196" height="56" viewBox="0 0 196 56" fill="none" xmlns="http://www.w3.org/2000/svg">
<g clip-path="url(#clip0)">
<path fill-rule="evenodd" clip-rule="evenodd" d="M30.913 42.0058L41.3533 24.1432L51.7936 6.28048L10.3587 6.03579L16.5576 16.9655L11.3375 19.9018L0 0H0.0815647L62.1523 0.326259L46.4919 27.161L34.3387 47.96L30.8315 53.9143L18.5152 32.2996L23.7353 29.3633L30.913 42.0058ZM30.8315 53.2618L33.9309 47.96L23.4906 29.608L18.8414 32.2181L30.8315 53.2618ZM11.5822 19.7387L16.1498 17.047L10.114 6.28048L0.815647 0.815647L11.5822 19.7387Z" fill="white"/>
<path fill-rule="evenodd" clip-rule="evenodd" d="M12.8057 18.923C12.2347 19.2493 11.5006 19.2493 11.0928 18.8414C10.9297 18.6783 10.7665 18.4336 10.685 18.1889C10.685 18.3521 10.7665 18.5152 10.7665 18.6783C10.7665 19.5755 10.2771 20.4727 9.62463 20.8806L9.29837 21.0437L9.37994 21.2884L11.3375 20.228L18.1074 16.3945L18.0258 16.1498L17.7811 16.3129C17.2101 16.6392 16.4761 16.6392 16.0682 16.2314C15.9051 16.0682 15.742 15.8236 15.6604 15.5789C15.6604 15.6604 15.6604 15.8236 15.742 15.9051C15.742 15.9867 15.742 15.9867 15.742 16.0682C15.742 16.2314 15.742 16.3129 15.742 16.4761C15.5789 17.2102 15.171 17.8627 14.6001 18.1889L12.8057 18.923Z" fill="white"/>
<path fill-rule="evenodd" clip-rule="evenodd" d="M22.2672 30.4237C22.8381 30.0974 23.5722 30.0974 23.98 30.5052C24.1431 30.6684 24.3878 30.9131 24.3878 31.1578C24.3878 30.9946 24.3063 30.9131 24.3063 30.7499C24.3063 29.8527 24.7957 28.9555 25.4482 28.5477L25.7744 28.3846L25.6929 28.1399L23.7353 29.2002L16.9655 33.0337L17.047 33.2784L17.2917 33.1153C17.8627 32.789 18.5967 32.7891 19.0046 33.1969C19.1677 33.36 19.3308 33.6047 19.4124 33.931C19.4124 33.8494 19.3308 33.6863 19.3308 33.6047C19.3308 33.5231 19.3308 33.4416 19.3308 33.4416C19.3308 33.2784 19.3308 33.1969 19.3308 33.0337C19.4124 32.2997 19.9018 31.6471 20.4727 31.3209L22.2672 30.4237Z" fill="white"/>
<path fill-rule="evenodd" clip-rule="evenodd" d="M35.3175 20.6359L36.3779 18.3521L40.293 16.0682L31.8102 28.3029L35.3175 20.6359ZM21.8593 15.9867L25.7744 18.2705L26.8348 20.5543L30.4236 28.3029L21.8593 15.9867ZM27.3242 11.1744H34.7466L38.1723 12.7241L34.7466 14.2738H27.3242L23.8169 12.7241L27.3242 11.1744ZM36.0516 18.3521L31.0762 29.2817L26.1007 18.3521H36.0516ZM34.7466 14.5185L36.1332 18.1889H26.0191L27.4057 14.5185H34.7466ZM38.4985 12.8872L40.5377 15.5789L36.2963 18.0258L34.9097 14.3554L37.0304 13.4582L38.4985 12.8872ZM23.6538 12.8872L25.1219 13.5397L27.2426 14.4369L25.856 18.1074L21.6146 15.6604L23.6538 12.8872ZM40.8639 15.6604C40.8639 15.6604 40.8639 15.5789 40.8639 15.6604C40.8639 15.5789 40.8639 15.5789 40.8639 15.6604C40.8639 15.5789 40.8639 15.5789 40.8639 15.6604C40.8639 15.5789 40.8639 15.5789 40.8639 15.5789L38.6617 12.6425L34.9097 11.0112C34.9097 11.0112 34.9097 11.0112 34.8281 11.0112H27.3242C27.3242 11.0112 27.3242 11.0112 27.2426 11.0112L23.4906 12.6425L21.2884 15.5789L30.9946 29.608L40.8639 15.6604Z" fill="white"/>
<path fill-rule="evenodd" clip-rule="evenodd" d="M34.7466 39.722L30.9946 29.6896L31.2393 29.4449L35.0728 39.6405L34.7466 39.722Z" fill="white"/>
<path fill-rule="evenodd" clip-rule="evenodd" d="M31.2393 29.2817L31.0761 42.0058H30.7499L30.913 29.2817H31.2393Z" fill="white"/>
<path fill-rule="evenodd" clip-rule="evenodd" d="M49.836 13.2135L40.7824 15.6604L40.6192 15.5789L40.5377 15.3342L52.9355 5.13858L53.0986 5.38327L41.1902 15.2526L49.7545 12.8872L49.836 13.2135Z" fill="white"/>
<path fill-rule="evenodd" clip-rule="evenodd" d="M37.3566 4.56766L38.7432 12.3163L52.9355 5.05705L53.0986 5.30174L38.4985 12.8057L37.0304 4.64922L37.3566 4.56766Z" fill="white"/>
<path fill-rule="evenodd" clip-rule="evenodd" d="M31.484 4.40448L34.8281 10.6034L38.5801 3.83353L38.8248 3.99666L34.9097 11.0112L34.7466 11.0928L34.5834 11.0112L31.0762 4.56761L31.484 4.40448Z" fill="white"/>
<path fill-rule="evenodd" clip-rule="evenodd" d="M30.5052 4.64918L27.4057 11.0112L27.2426 11.1744L27.0795 11.0928L23.4091 4.64918L23.6538 4.48605L27.161 10.685L30.1789 4.64918H30.5052Z" fill="white"/>
<path fill-rule="evenodd" clip-rule="evenodd" d="M21.5331 15.9867L8.72743 4.89389L23.4091 12.3163L24.3879 5.05702H24.7141L23.6538 12.8057L10.9297 6.36206L21.4515 15.4157L21.5331 15.9867Z" fill="white"/>
<path d="M172.183 53.7511C172.183 54.2405 172.102 54.6484 172.02 54.8115C171.857 54.9746 171.612 55.0562 171.286 55.0562H171.041V55.8718H171.367C172.02 55.8718 172.428 55.7087 172.672 55.3824C172.917 55.0562 173.08 54.5668 173.08 53.8327V48.0416H172.183V53.7511ZM172.183 46.8997H173.08V45.6762H172.183V46.8997ZM178.464 49.1835C178.79 49.5913 178.871 50.0807 178.871 50.8148C178.871 51.4673 178.708 52.0383 178.464 52.4461C178.137 52.8539 177.811 53.0171 177.24 53.0171C176.751 53.0171 176.343 52.8539 176.017 52.4461C175.69 52.0383 175.609 51.5489 175.609 50.8148C175.609 50.0807 175.772 49.5913 176.017 49.1835C176.343 48.7757 176.669 48.6126 177.24 48.6126C177.811 48.6126 178.137 48.7757 178.464 49.1835ZM175.364 48.6126C174.875 49.102 174.712 49.836 174.712 50.8148C174.712 51.712 174.956 52.4461 175.364 53.0171C175.854 53.5064 176.424 53.8327 177.322 53.8327C178.137 53.8327 178.79 53.588 179.198 53.0171C179.687 52.5277 179.932 51.7936 179.932 50.8148C179.932 49.9176 179.687 49.1835 179.198 48.6126C178.708 48.1232 178.056 47.7969 177.322 47.7969C176.424 47.7969 175.854 48.0416 175.364 48.6126ZM176.588 47.226H177.403L179.035 45.35H178.056L176.588 47.226ZM181.4 53.588H182.297V47.8785H181.4V53.588ZM181.4 46.8997H182.297V45.6762H181.4V46.8997ZM187.844 50.7332V50.9779C187.844 51.5489 187.68 52.0383 187.354 52.4461C187.028 52.8539 186.62 53.0171 186.131 53.0171C185.723 53.0171 185.478 52.9355 185.233 52.6908C184.989 52.5277 184.907 52.2014 184.907 51.8752C184.907 51.4673 185.07 51.1411 185.315 50.9779C185.641 50.8148 186.131 50.7332 186.865 50.7332H187.844ZM188.17 48.4494C187.762 48.0416 187.109 47.7969 186.294 47.7969C185.968 47.7969 185.641 47.7969 185.315 47.8785C184.989 47.96 184.663 48.0416 184.336 48.2047V49.102C184.581 48.9388 184.907 48.8573 185.233 48.7757C185.56 48.6941 185.886 48.6941 186.212 48.6941C186.702 48.6941 187.109 48.7757 187.436 49.0204C187.68 49.2651 187.844 49.5913 187.844 49.9992V50.0807H186.538C185.723 50.0807 185.07 50.2439 184.581 50.5701C184.173 50.8964 183.928 51.3858 183.928 52.0383C183.928 52.6092 184.092 53.0171 184.418 53.3433C184.744 53.6696 185.233 53.8327 185.804 53.8327C186.294 53.8327 186.62 53.7511 186.946 53.588C187.273 53.4249 187.517 53.1802 187.762 52.8539V53.7511H188.659V50.4886C188.741 49.5098 188.578 48.8573 188.17 48.4494ZM193.471 47.8785C193.145 47.7969 192.819 47.7969 192.493 47.7969C191.759 47.7969 191.269 47.96 190.861 48.2047C190.454 48.531 190.29 48.9388 190.29 49.4282C190.29 49.836 190.454 50.2439 190.698 50.4886C190.943 50.7332 191.351 50.8964 191.922 51.0595L192.248 51.1411C192.819 51.3042 193.227 51.3858 193.39 51.5489C193.553 51.712 193.635 51.8752 193.635 52.1198C193.635 52.3645 193.553 52.6092 193.308 52.7724C193.064 52.9355 192.737 53.0171 192.33 53.0171C192.003 53.0171 191.677 52.9355 191.351 52.8539C191.025 52.7724 190.698 52.6092 190.29 52.4461V53.4249C190.617 53.5064 191.025 53.6696 191.351 53.6696C191.677 53.7511 192.003 53.7511 192.33 53.7511C193.064 53.7511 193.635 53.588 194.042 53.2618C194.45 52.9355 194.695 52.5277 194.695 52.0383C194.695 51.5489 194.532 51.2226 194.287 50.9779C194.042 50.7332 193.553 50.4886 192.901 50.407L192.574 50.3254C192.085 50.2439 191.759 50.0807 191.596 49.9992C191.432 49.836 191.351 49.6729 191.351 49.5098C191.351 49.2651 191.432 49.0204 191.677 48.8573C191.922 48.6941 192.248 48.6126 192.737 48.6126C193.064 48.6126 193.308 48.6126 193.635 48.6941C193.879 48.7757 194.206 48.8573 194.45 49.0204V48.1232C194.042 48.0416 193.798 47.96 193.471 47.8785Z" fill="white"/>
<path fill-rule="evenodd" clip-rule="evenodd" d="M178.137 13.5397H171.123V13.7844H171.449C172.346 13.7844 173.162 14.5185 173.162 15.4973V25.0404H184.255C185.152 25.0404 185.968 25.7744 185.968 26.7532V28.3845C185.968 29.2817 185.233 30.0974 184.255 30.0974H173.162V39.6404C173.162 40.6192 172.428 41.3533 171.449 41.3533H171.123V41.598H196V31.3208H195.755V33.1968C195.755 37.6829 192.166 41.2717 187.68 41.2717H178.627V30.2605H184.255C185.152 30.2605 185.968 30.9946 185.968 31.9734V32.2996H186.212V22.7565H185.968V23.0828C185.968 23.98 185.233 24.7957 184.255 24.7957H178.627V13.7844H187.762C192.166 13.7844 195.837 17.3733 195.837 21.8593V23.6538H196.082V13.5397H178.137ZM87.9268 51.6304C86.948 51.6304 85.9692 50.8964 85.7245 49.9176L74.387 13.5397H68.6775L60.6841 39.5589C60.4394 40.5376 59.3791 41.2717 58.4819 41.2717H58.0741V41.5164H67.7803V41.2717H67.5356C66.6384 41.2717 66.0674 40.5376 66.3937 39.5589L71.5322 22.8381L80.015 49.9176C80.3412 50.8148 79.7703 51.6304 78.8731 51.6304H78.6284V51.8751H81.1569H88.4161V51.6304H87.9268ZM100.243 13.5397H92.6575V13.7844H92.9022C93.7994 13.7844 94.3704 14.5185 94.0441 15.4973L88.9055 32.218L80.9122 5.79108C80.6675 4.8123 81.1569 4.07822 82.1357 4.07822H82.3804V3.83353H72.5926V4.07822H73.0004C73.8976 4.07822 74.958 4.8123 75.2027 5.79108L86.1323 41.5164H91.8419L99.8352 15.4973C100.161 14.5185 101.14 13.7844 102.037 13.7844H102.445V13.5397H100.243ZM119.492 41.1902C118.595 41.1902 117.535 40.4561 117.29 39.4773L109.297 13.5397H103.587L92.4128 49.9176C92.0866 50.8964 91.1078 51.6304 90.2106 51.6304H89.7212V51.8751H99.5089V51.6304H99.2642C98.367 51.6304 97.7961 50.8964 98.1223 49.9176L106.442 22.8381L111.581 39.5589C111.825 40.5376 111.336 41.2717 110.439 41.2717H110.112V41.5164H112.641H119.9V41.2717H119.492V41.1902ZM146.98 13.7844H147.306V13.5397H137.844V13.7844H138.171C139.149 13.7844 139.883 14.5185 139.883 15.4973V32.2996L128.791 13.6213H120.471V13.866H120.797C121.776 13.866 122.51 14.6001 122.51 15.5788V15.4973V39.6404C122.51 40.6192 121.776 41.3533 120.797 41.3533H120.471V41.598H129.933V41.3533H129.606C128.709 41.3533 127.893 40.6192 127.893 39.6404V22.7565L138.986 41.4349H140.128V15.4157C140.128 14.5185 140.862 13.7029 141.841 13.7029H143.391C144.288 13.7029 145.104 14.4369 145.104 15.4157V41.4349H147.387V41.1902H147.061C146.164 41.1902 145.348 40.4561 145.348 39.4773V15.4157C145.267 14.5185 146.001 13.7844 146.98 13.7844ZM147.795 13.5397V23.6538H148.04V21.7778C148.04 17.2917 151.629 13.7029 156.115 13.7029H156.523V39.4773C156.523 40.4561 155.789 41.1902 154.81 41.1902H154.484V41.4349H163.945V41.1902H163.619C162.722 41.1902 161.906 40.4561 161.906 39.4773V13.7844H162.314C166.718 13.7844 170.389 17.3733 170.389 21.8593V23.6538H170.633V13.5397H147.795Z" fill="white"/>
</g>
<defs>
<clipPath id="clip0">
<rect width="196" height="55.7903" fill="white"/>
</clipPath>
</defs>
</svg>
