<svg width="20" height="20" viewBox="0 0 20 20" fill="none" xmlns="http://www.w3.org/2000/svg">
<path d="M14.8492 4.94975C12.1198 2.22043 7.67898 2.22043 4.94967 4.94975C2.22035 7.67907 2.22035 12.1199 4.94967 14.8492C7.67898 17.5786 12.1198 17.5786 14.8492 14.8492C17.5785 12.1199 17.5785 7.67907 14.8492 4.94975ZM10.6566 13.5412C10.6571 14.0423 10.3457 14.3924 9.89992 14.393C9.69716 14.393 9.51898 14.3214 9.38468 14.1871C9.22947 14.0318 9.14326 13.8025 9.14377 13.5417L9.1427 10.6561L6.25713 10.6561C5.77062 10.6556 5.40587 10.3358 5.40535 9.89945C5.40535 9.45421 5.75547 9.14278 6.25713 9.14277L9.1427 9.14277L9.14217 6.25774C9.14164 5.7566 9.4531 5.40648 9.89884 5.40596C10.3357 5.40596 10.6555 5.77072 10.6555 6.25774L10.656 9.14277L13.5416 9.14277C14.0281 9.1433 14.3929 9.4631 14.3934 9.89945C14.3934 10.3447 14.0433 10.6561 13.5416 10.6561L10.656 10.6561L10.6566 13.5412Z" fill="#94B8B3"/>
</svg>
