<svg xmlns="http://www.w3.org/2000/svg" width="210.827" height="27.315" viewBox="0 0 210.827 27.315">
  <path d="M-614.13-130.7a13.447,13.447,0,0,0,7.312,1.818c5.683,0,10.38-2.917,10.38-8.6,0-3.069-1.97-5.152-5.077-6.743-2.159-1.212-3.713-2.159-3.713-3.637,0-1.4,1.326-2.652,3.9-2.652a10.184,10.184,0,0,1,4.736,1.1l1.7-4.546a12.615,12.615,0,0,0-6.024-1.25c-5.569,0-10.039,3.107-10.039,8.3,0,3.3,2.576,5.3,5.266,6.743,2.349,1.25,3.447,2.159,3.447,3.637,0,1.97-1.932,2.955-4.054,2.955a12,12,0,0,1-6.024-1.629Zm23.072,1.4,1.553-8.221c.758-4.092,2.841-6.327,4.622-6.327,1.4,0,1.856.909,1.856,2.235a12.076,12.076,0,0,1-.189,2.046l-1.97,10.267h5.493l2.046-10.759a22.65,22.65,0,0,0,.3-3.107c0-3.22-1.743-5.077-4.773-5.077a7.825,7.825,0,0,0-6.478,3.485h-.076l.341-3.069h-4.811c-.265,1.667-.53,3.675-1.023,6.024l-2.349,12.5Zm28.754-5a11.649,11.649,0,0,1-5.19,1.174,4.28,4.28,0,0,1-3.561-1.44,4.115,4.115,0,0,1-.606-1.894c7.463.189,12.047-1.515,12.047-6.213,0-3.447-2.69-5.569-6.44-5.569-6.706,0-10.8,5.872-10.8,11.517,0,4.849,2.728,7.842,7.994,7.842a16,16,0,0,0,6.933-1.477Zm-2.425-8.41c0,1.743-2.122,2.311-6.4,2.273a4.679,4.679,0,0,1,4.395-3.826C-565.486-144.266-564.729-143.622-564.729-142.713Zm21.177,13.411a44.878,44.878,0,0,1,.758-8.335l1.932-9.7a21.85,21.85,0,0,0-6.137-.909c-9.092,0-13.26,6.668-13.26,12.919,0,3.864,2.273,6.44,5.607,6.44,2.159,0,4.546-1.023,6.251-4.092h.076c-.076,1.326-.189,2.576-.227,3.675Zm-4.281-10.38c-.871,4.546-2.879,6.4-4.508,6.4-1.515,0-2.235-1.25-2.235-3.069,0-3.447,2.576-7.766,6.1-7.766a8.07,8.07,0,0,1,1.477.152Zm11.252,10.38,1.137-5.948,2.046-1.97,3.258,7.918h6.1l-5.152-10.873,7.88-7.653h-6.743l-4.736,5.645c-.53.644-1.1,1.364-1.667,2.084h-.076l3.069-16.1h-5.417L-542-129.3Zm26.595-5a11.649,11.649,0,0,1-5.19,1.174,4.28,4.28,0,0,1-3.561-1.44,4.115,4.115,0,0,1-.606-1.894c7.463.189,12.047-1.515,12.047-6.213,0-3.447-2.69-5.569-6.44-5.569-6.706,0-10.8,5.872-10.8,11.517,0,4.849,2.728,7.842,7.994,7.842a16,16,0,0,0,6.933-1.477Zm-2.425-8.41c0,1.743-2.122,2.311-6.4,2.273a4.679,4.679,0,0,1,4.395-3.826C-513.168-144.266-512.41-143.622-512.41-142.713Zm9.471,13.411,1.288-6.895c.682-3.637,2.311-6.743,5.8-6.743a6.421,6.421,0,0,1,.871.038l1.061-5.3a9.232,9.232,0,0,0-1.023-.038c-2.538,0-4.584,1.743-5.91,4.205h-.114c.152-1.288.227-2.538.341-3.788h-4.736c-.189,1.591-.417,4.7-.947,7.5l-2.084,11.024Zm5.645-1.061a10.858,10.858,0,0,0,5.645,1.44c4.925.038,8.524-2.273,8.524-6.516,0-2.576-2.122-4.054-4.167-5.077-1.478-.72-2.235-1.364-2.235-2.122,0-1.023.947-1.629,2.425-1.629a9.144,9.144,0,0,1,3.675.8l1.326-3.864a10.682,10.682,0,0,0-4.773-.947c-4.773,0-8.145,2.538-8.145,6.4,0,2.311,1.781,3.864,3.9,4.925,1.7.833,2.311,1.477,2.311,2.387s-.8,1.667-2.349,1.667a11.888,11.888,0,0,1-4.811-1.288Zm16.972,1.44a3.61,3.61,0,0,0,3.788-3.751,3.054,3.054,0,0,0-3.144-3.258,3.721,3.721,0,0,0-3.675,3.864A2.955,2.955,0,0,0-480.322-128.923Zm3.713-1.44a10.858,10.858,0,0,0,5.645,1.44c4.925.038,8.524-2.273,8.524-6.516,0-2.576-2.122-4.054-4.167-5.077-1.477-.72-2.235-1.364-2.235-2.122,0-1.023.947-1.629,2.425-1.629a9.145,9.145,0,0,1,3.675.8l1.326-3.864a10.682,10.682,0,0,0-4.773-.947c-4.773,0-8.145,2.538-8.145,6.4,0,2.311,1.781,3.864,3.9,4.925,1.7.833,2.311,1.477,2.311,2.387s-.8,1.667-2.349,1.667a11.888,11.888,0,0,1-4.811-1.288Zm18.98-20.988-.682,3.485H-460.7l-.758,4.167h2.349l-1.4,7.35a16.186,16.186,0,0,0-.417,3.447c0,2.349,1.553,4.016,4.849,4.016a11.08,11.08,0,0,0,3.22-.417l.606-4.281a9.655,9.655,0,0,1-1.477.076c-1.212,0-1.591-.644-1.591-1.553a13.314,13.314,0,0,1,.3-2.349l1.25-6.289h3.94l.833-4.167h-3.978l.947-5Zm17.578,3.069c-6.592,0-11.062,5.3-11.062,11.706,0,4.622,3.144,7.691,7.842,7.691,6.4,0,11.062-4.963,11.062-11.744C-432.209-144.873-435.088-148.282-440.051-148.282Zm-.72,4.167c2.159,0,2.917,1.818,2.917,3.523,0,3.144-1.7,7.539-4.622,7.539-1.932,0-2.993-1.44-2.993-3.6C-445.468-139.531-443.915-144.115-440.771-144.115ZM-427.4-129.3l1.288-6.895c.682-3.637,2.311-6.743,5.8-6.743a6.421,6.421,0,0,1,.871.038l1.061-5.3a9.232,9.232,0,0,0-1.023-.038c-2.538,0-4.584,1.743-5.91,4.205h-.114c.152-1.288.227-2.538.341-3.788h-4.736c-.189,1.591-.417,4.7-.947,7.5l-2.084,11.024Zm21.4-5a11.648,11.648,0,0,1-5.19,1.174,4.28,4.28,0,0,1-3.561-1.44,4.115,4.115,0,0,1-.606-1.894c7.463.189,12.047-1.515,12.047-6.213,0-3.447-2.69-5.569-6.44-5.569-6.706,0-10.8,5.872-10.8,11.517,0,4.849,2.728,7.842,7.994,7.842a16,16,0,0,0,6.933-1.477Zm-2.425-8.41c0,1.743-2.122,2.311-6.4,2.273a4.679,4.679,0,0,1,4.395-3.826C-409.175-144.266-408.417-143.622-408.417-142.713Z" transform="translate(614.13 156.2)" fill="#fff"/>
</svg>
