<svg width="476" height="455" viewBox="0 0 476 455" fill="none" xmlns="http://www.w3.org/2000/svg">
<path d="M475.075 176.573C475.075 169.53 469.747 165.153 459.083 163.438L315.766 142.6L251.529 12.694C247.915 4.88999 243.248 0.98999 237.539 0.98999C231.831 0.98999 227.167 4.88999 223.55 12.694L159.31 142.6L15.986 163.438C5.33 165.153 0 169.53 0 176.573C0 180.572 2.38 185.14 7.139 190.279L111.063 291.347L86.51 434.096C86.129 436.762 85.94 438.671 85.94 439.808C85.94 443.805 86.938 447.182 88.936 449.944C90.933 452.71 93.929 454.086 97.928 454.086C101.356 454.086 105.161 452.949 109.348 450.663L237.536 383.277L365.73 450.656C369.73 452.942 373.536 454.086 377.146 454.086C384.958 454.086 388.86 449.336 388.86 439.815C388.86 437.344 388.764 435.441 388.573 434.099L364.022 291.355L467.656 190.286C472.604 185.33 475.075 180.76 475.075 176.573Z" fill="#FFA200"/>
</svg>
